#!OML:ASF X:\für Bonn\!DataBase\2005_08_10_Bjorn_Final\c3d\bjorn.ASF
:FULLY-SPECIFIED
:DEGREES
109
root -21.2372 17.8961 -17.102 -168.38 -192.933 -185.723
lowerback -2.05179 -0.148234 7.99879
upperback 4.71486 -0.790761 3.86541
thorax 6.05101 -0.11049 -0.486311
lowerneck -8.89828 4.21086 4.9606
upperneck 5.58702 5.68124 -8.093
head 3.49248 2.5695 -2.93748
rclavicle 7.95139e-016 2.14687e-014
rhumerus -41.2441 -3.83374 -88.6163
rradius 64.7265
rwrist 5.56269
rhand -22.0653 22.189
rfingers 7.12502
rthumb 4.34573 -7.74646
lclavicle 7.95139e-016 2.14687e-014
lhumerus -45.4142 -27.9792 107.926
lradius 73.4056
lwrist 0.294999
lhand -31.6356 -18.4124
lfingers 7.12502
lthumb -4.89683 11.511
rfemur -30.8715 -9.79741 21.9513
rtibia 53.4262
rfoot -30.802 11.0398
rtoes -21.9818
lfemur -11.4822 0.825615 -11.6438
ltibia 69.4071
lfoot 2.07144 -0.685871
ltoes -21.2837
110
root -21.209 17.8399 -16.9084 -168.562 -192.808 -186.055
lowerback -1.78442 0.147621 8.34275
upperback 4.7682 -0.385061 3.85425
thorax 5.98443 0.105032 -0.658249
lowerneck -9.23832 4.24145 5.46621
upperneck 5.62014 5.67786 -8.4237
head 3.58261 2.55602 -3.11477
rclavicle 0 -1.11319e-014
rhumerus -39.3389 -3.70535 -89.2682
rradius 65.8494
rwrist 5.85147
rhand -21.838 21.1756
rfingers 7.12502
rthumb 4.56516 -8.75522
lclavicle 0 -1.11319e-014
lhumerus -46.1548 -26.831 107.773
lradius 72.6055
lwrist 1.05562
lhand -31.32 -18.1446
lfingers 7.12502
lthumb -4.59217 11.7856
rfemur -30.0377 -10.0181 22.2031
rtibia 53.4835
rfoot -31.4407 11.5488
rtoes -22.2125
lfemur -13.4381 1.30152 -11.372
ltibia 72.0422
lfoot 0.426922 -1.00632
ltoes -21.6865
111
root -21.1803 17.7884 -16.7127 -168.722 -192.7 -186.395
lowerback -1.53339 0.437156 8.62375
upperback 4.79435 0.0144217 3.89629
thorax 5.90209 0.312004 -0.742466
lowerneck -9.46982 4.24813 5.78496
upperneck 5.5834 5.65756 -8.68551
head 3.62531 2.53644 -3.24456
rclavicle 9.93923e-015 -3.57812e-014
rhumerus -37.5101 -3.39251 -89.8844
rradius 67.1249
rwrist 6.03745
rhand -21.3252 20.513
rfingers 7.12502
rthumb 5.06038 -9.40656
lclavicle 9.93923e-015 -3.57812e-014
lhumerus -46.9178 -25.6664 107.588
lradius 71.9621
lwrist 1.92688
lhand -31.0067 -18.1005
lfingers 7.12502
lthumb -4.28961 11.8361
rfemur -29.1736 -10.1964 22.4544
rtibia 53.4433
rfoot -31.9969 12.0859
rtoes -22.2475
lfemur -15.471 1.78995 -11.1124
ltibia 74.4609
lfoot -1.20049 -1.26774
ltoes -21.8528
112
root -21.1494 17.7416 -16.5155 -168.843 -192.574 -186.704
lowerback -1.28875 0.72254 8.81886
upperback 4.77432 0.415592 3.9556
thorax 5.77543 0.512827 -0.764203
lowerneck -9.62358 4.24336 5.99625
upperneck 5.58127 5.63652 -8.90507
head 3.66127 2.51718 -3.34541
rclavicle 3.61788e-014 -4.77083e-015
rhumerus -35.7398 -2.82134 -90.4776
rradius 68.4384
rwrist 6.02996
rhand -21.0538 20.0852
rfingers 7.12502
rthumb 5.32238 -9.82796
lclavicle 3.61788e-014 -4.77083e-015
lhumerus -47.6546 -24.3779 107.335
lradius 71.3871
lwrist 2.95409
lhand -30.6028 -18.3766
lfingers 7.12502
lthumb -3.89954 11.5675
rfemur -28.2788 -10.3188 22.6498
rtibia 53.3033
rfoot -32.4901 12.6227
rtoes -22.1531
lfemur -17.5763 2.31372 -10.9433
ltibia 76.6642
lfoot -2.72368 -1.43851
ltoes -22.0614
113
root -21.116 17.7028 -16.3156 -168.956 -192.481 -186.977
lowerback -1.06993 0.982049 8.92535
upperback 4.74598 0.782688 4.0549
thorax 5.65074 0.691682 -0.699504
lowerneck -9.72628 4.22587 5.97266
upperneck 5.58295 5.61987 -8.99248
head 3.67963 2.50208 -3.36801
rclavicle -1.23246e-014 -1.11319e-014
rhumerus -34.0695 -1.96944 -90.9697
rradius 69.8028
rwrist 5.86777
rhand -21.2061 20.183
rfingers 7.12502
rthumb 5.1753 -9.73381
lclavicle -1.23246e-014 -1.11319e-014
lhumerus -48.3118 -23.006 107.015
lradius 70.8907
lwrist 4.00312
lhand -30.23 -18.9293
lfingers 7.12502
lthumb -3.53958 11.0211
rfemur -27.3095 -10.4206 22.7942
rtibia 53.048
rfoot -32.9345 13.0887
rtoes -22.1351
lfemur -19.7324 2.80204 -10.8609
ltibia 78.6073
lfoot -4.09721 -1.52612
ltoes -22.4287
114
root -21.0805 17.6727 -16.1109 -169.048 -192.414 -187.267
lowerback -0.909503 1.25641 9.02565
upperback 4.69572 1.16469 4.15944
thorax 5.53723 0.877357 -0.625981
lowerneck -9.78786 4.17746 5.84845
upperneck 5.65891 5.57371 -8.98958
head 3.70576 2.47415 -3.34889
rclavicle 3.45885e-014 -2.22639e-014
rhumerus -32.4953 -0.980622 -91.407
rradius 71.0598
rwrist 5.76622
rhand -21.8665 20.7501
rfingers 7.12502
rthumb 4.53768 -9.18129
lclavicle 3.45885e-014 -2.22639e-014
lhumerus -48.937 -21.6819 106.647
lradius 70.4014
lwrist 5.04029
lhand -29.9086 -19.6591
lfingers 7.12502
lthumb -3.22919 10.2962
rfemur -26.2832 -10.4559 22.9637
rtibia 52.6574
rfoot -33.392 13.3835
rtoes -22.342
lfemur -21.9014 3.26989 -10.8119
ltibia 80.2411
lfoot -5.56583 -1.557
ltoes -23.3131
115
root -21.0427 17.6492 -15.9039 -169.15 -192.379 -187.546
lowerback -0.805036 1.54327 9.10573
upperback 4.66842 1.55577 4.25879
thorax 5.48039 1.0691 -0.545001
lowerneck -9.84465 4.09672 5.63356
upperneck 5.72801 5.48852 -8.90205
head 3.72108 2.429 -3.29184
rclavicle 9.93923e-015 3.89618e-014
rhumerus -30.9945 0.0126154 -91.8025
rradius 72.1987
rwrist 5.89766
rhand -22.8118 21.4221
rfingers 7.12502
rthumb 3.62487 -8.52687
lclavicle 9.93923e-015 3.89618e-014
lhumerus -49.4955 -20.4781 106.245
lradius 70.0554
lwrist 5.96198
lhand -29.4963 -19.9463
lfingers 7.12502
lthumb -2.83103 10.0146
rfemur -25.1597 -10.4546 23.1052
rtibia 52.136
rfoot -33.8192 13.6721
rtoes -22.4229
lfemur -24.0119 3.70585 -10.8266
ltibia 81.5357
lfoot -7.06543 -1.57646
ltoes -23.9414
116
root -21.0019 17.6366 -15.6917 -169.226 -192.37 -187.74
lowerback -0.802291 1.86482 9.15317
upperback 4.66441 1.98291 4.26784
thorax 5.5109 1.28257 -0.533938
lowerneck -9.87853 3.97221 5.48644
upperneck 5.76452 5.32972 -8.76669
head 3.71793 2.35228 -3.23678
rclavicle 3.26007e-014 4.92986e-014
rhumerus -29.5129 0.792762 -92.2371
rradius 73.1154
rwrist 6.27939
rhand -23.6085 22.253
rfingers 7.12502
rthumb 2.85545 -7.70761
lclavicle 3.26007e-014 4.92986e-014
lhumerus -49.9853 -19.6015 105.757
lradius 69.7312
lwrist 6.88743
lhand -29.0156 -19.6944
lfingers 7.12502
lthumb -2.36676 10.2722
rfemur -23.9463 -10.4068 23.1558
rtibia 51.459
rfoot -34.2091 13.8158
rtoes -22.5736
lfemur -26.0834 4.05954 -10.9969
ltibia 82.4915
lfoot -8.6009 -1.47629
ltoes -24.7705
117
root -20.9592 17.638 -15.4754 -169.18 -192.387 -187.687
lowerback -0.884058 2.19945 8.98694
upperback 4.62708 2.43218 4.15803
thorax 5.54922 1.49999 -0.52594
lowerneck -9.93774 3.81768 5.36166
upperneck 5.84672 5.12417 -8.5733
head 3.72868 2.25433 -3.17021
rclavicle 5.20816e-014 3.18055e-015
rhumerus -28.0785 1.47787 -92.6613
rradius 73.8693
rwrist 6.59168
rhand -23.9644 23.1175
rfingers 7.12502
rthumb 2.51178 -6.84749
lclavicle 5.20816e-014 3.18055e-015
lhumerus -50.4726 -18.999 105.246
lradius 69.2879
lwrist 7.768
lhand -28.7282 -19.3674
lfingers 7.12502
lthumb -2.08922 10.6021
rfemur -22.7086 -10.3432 22.9612
rtibia 50.6169
rfoot -34.5685 13.8114
rtoes -23.0279
lfemur -28.1693 4.29538 -11.5254
ltibia 83.0897
lfoot -10.1603 -1.20331
ltoes -25.3514
118
root -20.9118 17.6539 -15.2549 -169.087 -192.426 -187.452
lowerback -0.992869 2.53521 8.69513
upperback 4.5622 2.89085 3.9557
thorax 5.57016 1.71773 -0.543727
lowerneck -9.88091 3.64495 5.23564
upperneck 5.88348 4.88778 -8.29401
head 3.70269 2.14857 -3.0808
rclavicle -9.06458e-014 -2.70347e-014
rhumerus -26.7334 2.15524 -93.0459
rradius 74.5075
rwrist 7.05045
rhand -24.2735 23.751
rfingers 7.12502
rthumb 2.21321 -6.21722
lclavicle -9.06458e-014 -2.70347e-014
lhumerus -51.1148 -18.5997 104.728
lradius 69.0187
lwrist 8.54805
lhand -28.6261 -18.9093
lfingers 7.12502
lthumb -1.99064 11.0612
rfemur -21.3545 -10.3437 22.5667
rtibia 49.5939
rfoot -34.8648 13.6201
rtoes -23.9879
lfemur -30.1833 4.40563 -12.3228
ltibia 83.3467
lfoot -11.6667 -0.763443
ltoes -25.3019
119
root -20.8615 17.6823 -15.0298 -169.069 -192.51 -187.16
lowerback -1.03192 2.86421 8.39602
upperback 4.52914 3.35013 3.68736
thorax 5.58747 1.93784 -0.626848
lowerneck -9.88616 3.45541 5.16797
upperneck 5.9569 4.61623 -7.96582
head 3.69663 2.02709 -2.98711
rclavicle -1.98785e-014 -9.54166e-015
rhumerus -25.471 2.81482 -93.4251
rradius 75.1901
rwrist 7.80146
rhand -24.8315 23.8288
rfingers 7.12502
rthumb 1.6743 -6.14436
lclavicle -1.98785e-014 -9.54166e-015
lhumerus -51.8349 -18.4239 104.189
lradius 68.8578
lwrist 9.01583
lhand -28.8731 -18.4086
lfingers 7.12502
lthumb -2.22916 11.5595
rfemur -19.786 -10.3168 22.0967
rtibia 48.3935
rfoot -35.0228 13.4557
rtoes -24.7454
lfemur -32.0021 4.41743 -13.2015
ltibia 83.2722
lfoot -13.0777 -0.292198
ltoes -24.8144
